HIERARCHY
ROOT Hips
{
	OFFSET 0.00 0.00 0.00
	CHANNELS 6 Xposition Yposition Zposition Xrotation Yrotation Zrotation
	JOINT Spine
	{
		OFFSET 0.00000 1.66264 2.49395
		CHANNELS 3 Xrotation Yrotation Zrotation
		JOINT Spine1
		{
			OFFSET 0.00000 0.57743 3.27475
			CHANNELS 3 Xrotation Yrotation Zrotation
			JOINT Spine2
			{
				OFFSET 0.00000 0.28982 3.31262
				CHANNELS 3 Xrotation Yrotation Zrotation
				JOINT Spine3
				{
					OFFSET 0.00000 0.00000 3.32527
					CHANNELS 3 Xrotation Yrotation Zrotation
					JOINT Neck
					{
						OFFSET 0.00000 -1.24697 8.72884
						CHANNELS 3 Xrotation Yrotation Zrotation
						JOINT Head
						{
							OFFSET 0.00000 -0.79396 4.50279
							CHANNELS 3 Xrotation Yrotation Zrotation
							End Site
							{
								OFFSET 0.00000 0.00001 5.38279
							}
						}
					}
					JOINT RightShoulder
					{
						OFFSET -1.14808 -1.91346 6.19963
						CHANNELS 3 Xrotation Yrotation Zrotation
						JOINT RightArm
						{
							OFFSET -5.70212 0.00000 0.00000
							CHANNELS 3 Xrotation Yrotation Zrotation
							JOINT RightForeArm
							{
								OFFSET -10.82477 0.00000 0.00000
								CHANNELS 3 Xrotation Yrotation Zrotation
								JOINT RightHand
								{
									OFFSET -10.02856 0.00000 0.00000
									CHANNELS 3 Xrotation Yrotation Zrotation
									JOINT RightHandEnd
									{
										OFFSET -2.68345 0.00000 0.00000
										CHANNELS 3 Xrotation Yrotation Zrotation
										End Site
										{
											OFFSET -2.68345 0.00000 0.00000
										}
									}
									JOINT RightHandThumb1
									{
										OFFSET -1.07338 -1.78897 -0.71559
										CHANNELS 3 Yrotation Xrotation Zrotation
										End Site
										{
											OFFSET -2.59202 -0.69453 0.00000
										}
									}
								}
							}
						}
					}
					JOINT LeftShoulder
					{
						OFFSET 1.14808 -1.91346 6.19963
						CHANNELS 3 Xrotation Yrotation Zrotation
						JOINT LeftArm
						{
							OFFSET 5.70212 0.00000 0.00000
							CHANNELS 3 Xrotation Yrotation Zrotation
							JOINT LeftForeArm
							{
								OFFSET 10.82477 0.00000 0.00000
								CHANNELS 3 Xrotation Yrotation Zrotation
								JOINT LeftHand
								{
									OFFSET 10.02856 0.00000 0.00000
									CHANNELS 3 Xrotation Yrotation Zrotation
									JOINT LeftHandEnd
									{
										OFFSET 2.68345 0.00000 0.00000
										CHANNELS 3 Xrotation Yrotation Zrotation
										End Site
										{
											OFFSET 2.68345 0.00000 0.00000
										}
									}
									JOINT LeftHandThumb1
									{
										OFFSET 1.07338 -1.78897 -0.71559
										CHANNELS 3 Yrotation Xrotation Zrotation
										End Site
										{
											OFFSET 2.59202 -0.69453 0.00000
										}
									}
								}
							}
						}
					}
				}
			}
		}
	}
	JOINT RightUpLeg
	{
		OFFSET -3.40597 0.00000 -0.99500
		CHANNELS 3 Xrotation Yrotation Zrotation
		JOINT RightLeg
		{
			OFFSET 0.00001 0.00000 -17.05191
			CHANNELS 3 Xrotation Yrotation Zrotation
			JOINT RightFoot
			{
				OFFSET 0.00001 0.00000 -15.93260
				CHANNELS 3 Xrotation Yrotation Zrotation
				JOINT RightToeBase
				{
					OFFSET 0.00000 -4.98016 -1.81263
					CHANNELS 3 Xrotation Yrotation Zrotation
					End Site
					{
						OFFSET 0.00000 -2.75539 -0.00000
					}
				}
			}
		}
	}
	JOINT LeftUpLeg
	{
		OFFSET 3.40597 0.00000 -0.99500
		CHANNELS 3 Xrotation Yrotation Zrotation
		JOINT LeftLeg
		{
			OFFSET 0.00001 0.00000 -17.05191
			CHANNELS 3 Xrotation Yrotation Zrotation
			JOINT LeftFoot
			{
				OFFSET 0.00001 0.00000 -15.93260
				CHANNELS 3 Xrotation Yrotation Zrotation
				JOINT LeftToeBase
				{
					OFFSET 0.00000 -4.98016 -1.81263
					CHANNELS 3 Xrotation Yrotation Zrotation
					End Site
					{
						OFFSET 0.00000 -2.75539 -0.00000
					}
				}
			}
		}
	}
}
MOTION
Frames: 18
Frame Time: 0.008342
 6.8687 -11.6888 16.0583 107.9651 -3.7872 4.0061 0.7550 2.5820 -0.7284 2.3927 0.3684 -0.1563 -3.1743 -1.1260 -1.4552 -1.5579 -0.8453 1.2205 -26.1230 13.8448 4.1355 -4.2828 -2.3239 2.0516 4.4229 31.8981 -10.6243 2.3183 -41.0324 19.9147 -0.0001 0.0001 118.3947 77.1179 72.4268 -58.8009 0.0000 -0.0000 0.0000 -0.0000 0.0000 0.0000 7.5089 -7.3532 9.8844 -3.4903 24.2825 -29.5746 -0.0001 -0.0001 -108.3325 91.3626 -79.6353 74.4996 -0.0000 -0.0000 -0.0000 0.0000 -0.0000 0.0000 -3.3178 10.1963 -13.9244 13.9748 0.0000 0.0000 4.2826 -11.0176 -12.3990 -1.6655 0.0000 -0.0000 0.4816 -8.4660 13.2198 6.5170 0.0000 0.0000 8.3251 17.9521 12.0737 -2.9518 0.0000 -0.0000
 6.8575 -11.6742 15.8439 108.0136 -3.7867 4.0737 0.7052 2.5957 -0.7168 2.3457 0.3903 -0.1556 -3.1621 -1.1126 -1.5028 -1.5414 -0.8478 1.2261 -26.1930 13.9459 4.1389 -4.2416 -2.4293 1.9446 4.7278 32.0901 -11.2096 2.9382 -41.4310 19.8503 -0.0001 0.0001 119.3482 77.2471 72.3691 -58.5906 0.0000 0.0000 0.0000 0.0000 -0.0000 0.0000 7.6640 -7.3003 10.2899 -3.2617 24.3217 -29.3444 -0.0001 -0.0001 -109.2646 92.0656 -79.7188 74.9391 -0.0000 0.0000 -0.0000 0.0000 -0.0000 0.0000 -3.1813 10.1451 -14.0365 14.0109 0.0000 0.0000 4.3097 -11.0616 -12.4345 -1.6688 0.0000 -0.0000 0.6105 -8.4711 13.0977 6.5443 0.0000 0.0000 8.2593 17.8552 12.1398 -2.9656 0.0000 -0.0000
 6.8462 -11.6598 15.6359 108.0616 -3.7867 4.1392 0.6505 2.6182 -0.7218 2.3063 0.4007 -0.1593 -3.1604 -1.0893 -1.5484 -1.5224 -0.8476 1.2206 -26.2512 14.0187 4.1393 -4.1985 -2.5109 1.8567 5.0042 32.2284 -11.7401 3.5315 -41.8141 19.8040 -0.0001 0.0001 120.2476 77.3211 72.3028 -58.3065 0.0000 -0.0000 -0.0000 0.0000 -0.0000 -0.0000 7.8182 -7.2542 10.7128 -3.0334 24.3673 -29.1209 -0.0001 -0.0001 -110.1589 92.7310 -79.8091 75.3405 -0.0000 0.0000 0.0000 0.0000 -0.0000 -0.0000 -3.0597 10.0937 -14.1448 14.0466 0.0000 0.0000 4.3279 -11.1011 -12.4767 -1.6828 0.0000 -0.0000 0.7317 -8.4776 12.9926 6.5849 0.0000 0.0000 8.1889 17.7348 12.2048 -3.0124 0.0000 -0.0000
 6.8358 -11.6455 15.4337 108.0956 -3.7973 4.1775 0.6068 2.6413 -0.7166 2.2541 0.4218 -0.1600 -3.1487 -1.0665 -1.6092 -1.5041 -0.8489 1.2132 -26.2958 14.0821 4.1422 -4.1668 -2.5792 1.7896 5.2496 32.3275 -12.2157 4.0966 -42.1817 19.7723 -0.0001 0.0001 121.0942 77.3258 72.2279 -57.9401 -0.0000 -0.0000 -0.0000 0.0000 -0.0000 -0.0000 7.9704 -7.1987 11.1505 -2.8096 24.4020 -28.9071 -0.0001 -0.0001 -111.0100 93.4067 -79.8826 75.7649 -0.0000 0.0000 0.0000 -0.0000 -0.0000 0.0000 -2.9453 10.0552 -14.2372 14.0877 0.0000 0.0000 4.3354 -11.1302 -12.5115 -1.7062 0.0000 -0.0000 0.8755 -8.4703 12.9119 6.6194 0.0000 0.0000 8.1151 17.5996 12.2895 -3.0902 0.0000 -0.0000
 6.8260 -11.6314 15.2387 108.1298 -3.8104 4.2084 0.5476 2.6683 -0.7208 2.2259 0.4422 -0.1669 -3.1539 -1.0485 -1.6742 -1.4830 -0.8465 1.2057 -26.3304 14.1326 4.1548 -4.1440 -2.6317 1.7420 5.4619 32.3848 -12.6382 4.6367 -42.5236 19.7611 -0.0001 0.0001 121.8871 77.2789 72.1493 -57.5137 -0.0000 0.0000 -0.0000 0.0000 -0.0000 -0.0000 8.1121 -7.1438 11.5956 -2.5805 24.4308 -28.6940 -0.0001 -0.0001 -111.8212 94.0568 -79.9430 76.1730 -0.0000 0.0000 -0.0000 -0.0000 0.0000 0.0000 -2.8485 10.0213 -14.3208 14.1325 0.0000 0.0000 4.3314 -11.1489 -12.5511 -1.7350 0.0000 -0.0000 1.0111 -8.4595 12.8480 6.6641 0.0000 0.0000 8.0375 17.4479 12.3800 -3.1946 0.0000 -0.0000
 6.8169 -11.6176 15.0504 108.1496 -3.8250 4.2213 0.5091 2.6895 -0.7260 2.1693 0.4695 -0.1620 -3.1429 -1.0326 -1.7548 -1.4607 -0.8515 1.2009 -26.3597 14.1915 4.1858 -4.1356 -2.6816 1.7059 5.6487 32.4167 -13.0226 5.1532 -42.8396 19.7740 -0.0001 0.0001 122.6290 77.1833 72.0684 -57.0402 0.0000 -0.0000 -0.0000 -0.0000 -0.0000 0.0000 8.2500 -7.0799 12.0452 -2.3536 24.4477 -28.4917 -0.0001 -0.0001 -112.5843 94.7503 -79.9856 76.6401 0.0000 -0.0000 0.0000 0.0000 -0.0000 -0.0000 -2.7518 9.9895 -14.3879 14.1759 0.0000 0.0000 4.3197 -11.1544 -12.5930 -1.7661 0.0000 -0.0000 1.1612 -8.4456 12.8106 6.7090 0.0000 0.0000 7.9593 17.2873 12.4758 -3.3160 0.0000 -0.0000
 6.8086 -11.6039 14.8689 108.1488 -3.8419 4.2167 0.4773 2.7120 -0.7292 2.1315 0.4781 -0.1711 -3.1442 -1.0065 -1.8129 -1.4382 -0.8530 1.1884 -26.3767 14.2455 4.2252 -4.1460 -2.7224 1.6901 5.8100 32.4235 -13.3644 5.6479 -43.1254 19.8023 -0.0001 0.0001 123.3221 77.0559 71.9908 -56.5425 0.0000 -0.0000 -0.0000 -0.0000 -0.0000 0.0000 8.3785 -7.0209 12.4908 -2.1203 24.4526 -28.2931 -0.0001 -0.0001 -113.3029 95.4582 -80.0047 77.1414 -0.0000 0.0000 -0.0000 -0.0000 0.0000 0.0000 -2.6492 9.9612 -14.4358 14.2230 0.0000 0.0000 4.2980 -11.1483 -12.6383 -1.7948 0.0000 -0.0000 1.3321 -8.4279 12.8026 6.7524 0.0000 0.0000 7.8829 17.1243 12.5708 -3.4425 0.0000 -0.0000
 6.8012 -11.5910 14.6972 108.1688 -3.8583 4.2002 0.4232 2.7255 -0.7306 2.0882 0.5004 -0.1726 -3.1392 -0.9934 -1.8757 -1.4146 -0.8580 1.1801 -26.4035 14.3151 4.2866 -4.1594 -2.7677 1.6786 5.9467 32.4178 -13.6812 6.1290 -43.3786 19.8518 -0.0001 0.0001 123.9703 76.8956 71.9177 -56.0253 0.0000 -0.0000 -0.0000 -0.0000 -0.0000 0.0000 8.4962 -6.9505 12.9260 -1.8864 24.4355 -28.1083 -0.0001 -0.0001 -113.9714 96.2341 -80.0017 77.7293 0.0000 0.0000 -0.0000 0.0000 -0.0000 0.0000 -2.5924 9.9380 -14.4602 14.2867 0.0000 0.0000 4.2673 -11.1269 -12.6907 -1.8184 0.0000 -0.0000 1.4670 -8.4073 12.8123 6.8100 0.0000 0.0000 7.8049 16.9638 12.6684 -3.5598 0.0000 -0.0000
 6.7947 -11.5789 14.5342 108.1929 -3.8720 4.1794 0.3643 2.7364 -0.7371 2.0428 0.5132 -0.1756 -3.1355 -0.9799 -1.9250 -1.3880 -0.8686 1.1762 -26.4351 14.4077 4.3679 -4.1813 -2.8243 1.6635 6.0732 32.4116 -13.9901 6.6015 -43.6034 19.9288 -0.0001 0.0001 124.5734 76.7334 71.8539 -55.5257 0.0000 0.0000 -0.0000 0.0000 0.0000 -0.0000 8.5959 -6.8700 13.3352 -1.6470 24.3915 -27.9300 -0.0001 -0.0001 -114.5918 97.0559 -79.9804 78.3850 0.0000 0.0000 -0.0000 0.0000 -0.0000 0.0000 -2.5537 9.9147 -14.4639 14.3558 0.0000 0.0000 4.2317 -11.0929 -12.7551 -1.8347 0.0000 -0.0000 1.5845 -8.3875 12.8323 6.8757 0.0000 0.0000 7.7295 16.8150 12.7640 -3.6558 0.0000 -0.0000
 6.7898 -11.5665 14.3762 108.1591 -3.8868 4.1473 0.3480 2.7368 -0.7406 2.0070 0.5295 -0.1769 -3.1307 -0.9748 -1.9628 -1.3653 -0.8795 1.1730 -26.4487 14.5082 4.4559 -4.2320 -2.8777 1.6491 6.1953 32.4182 -14.2814 7.0586 -43.8042 20.0101 -0.0001 0.0001 125.1354 76.5847 71.8021 -55.0702 0.0000 -0.0000 0.0000 0.0000 0.0000 -0.0000 8.6914 -6.8015 13.7177 -1.4009 24.3415 -27.7643 -0.0001 -0.0001 -115.1620 97.9409 -79.9460 79.1235 -0.0000 0.0000 0.0000 -0.0000 0.0000 -0.0000 -2.4547 9.8911 -14.4596 14.4164 0.0000 0.0000 4.1965 -11.0487 -12.8146 -1.8426 0.0000 -0.0000 1.7675 -8.3659 12.8647 6.9240 0.0000 0.0000 7.6623 16.6916 12.8569 -3.7179 0.0000 -0.0000
 6.7856 -11.5555 14.2298 108.1634 -3.8972 4.1146 0.2944 2.7366 -0.7434 1.9750 0.5372 -0.1754 -3.1303 -0.9708 -1.9917 -1.3392 -0.8966 1.1797 -26.4793 14.6311 4.5588 -4.2723 -2.9449 1.6207 6.3114 32.4324 -14.5759 7.5112 -43.9760 20.1108 -0.0001 0.0001 125.6572 76.4534 71.7593 -54.6566 -0.0000 -0.0000 -0.0000 -0.0000 0.0000 0.0000 8.7654 -6.7216 14.0637 -1.1486 24.2618 -27.6135 -0.0001 -0.0001 -115.6824 98.8622 -79.9064 79.9156 0.0000 -0.0000 0.0000 0.0000 0.0000 -0.0000 -2.4192 9.8700 -14.4292 14.4991 0.0000 0.0000 4.1579 -10.9936 -12.8849 -1.8431 0.0000 -0.0000 1.8853 -8.3462 12.8968 6.9938 0.0000 0.0000 7.5955 16.5919 12.9479 -3.7400 0.0000 -0.0000
 6.7835 -11.5448 14.0907 108.1378 -3.9131 4.0764 0.2682 2.7241 -0.7413 1.9355 0.5575 -0.1760 -3.1193 -0.9741 -1.9992 -1.3195 -0.9126 1.1832 -26.4995 14.7585 4.6612 -4.3223 -3.0137 1.5833 6.4334 32.4599 -14.8644 7.9474 -44.1242 20.2132 -0.0001 0.0001 126.1400 76.3613 71.7284 -54.3164 -0.0000 0.0000 -0.0000 -0.0000 -0.0000 0.0000 8.8339 -6.6562 14.3730 -0.8900 24.1768 -27.4787 -0.0001 -0.0001 -116.1531 99.8363 -79.8587 80.7756 0.0000 -0.0000 -0.0000 -0.0000 0.0000 -0.0000 -2.3583 9.8575 -14.3903 14.5829 0.0000 0.0000 4.1220 -10.9300 -12.9470 -1.8385 0.0000 -0.0000 2.0307 -8.3179 12.9209 7.0517 0.0000 0.0000 7.5371 16.5289 13.0459 -3.7185 0.0000 -0.0000
 6.7819 -11.5351 13.9619 108.1283 -3.9217 4.0442 0.2211 2.7147 -0.7425 1.9070 0.5608 -0.1711 -3.1165 -0.9730 -2.0003 -1.2966 -0.9377 1.1982 -26.5276 14.9020 4.7696 -4.3624 -3.0910 1.5246 6.5584 32.5058 -15.1619 8.3805 -44.2533 20.3320 -0.0001 0.0001 126.5815 76.3139 71.7102 -54.0466 0.0000 0.0000 0.0000 -0.0000 0.0000 0.0000 8.8814 -6.5842 14.6374 -0.6257 24.0658 -27.3592 -0.0001 -0.0001 -116.5755 100.8152 -79.8168 81.6556 -0.0000 0.0000 0.0000 0.0000 0.0000 0.0000 -2.3260 9.8394 -14.3280 14.6724 0.0000 0.0000 4.0893 -10.8632 -13.0226 -1.8314 0.0000 -0.0000 2.1367 -8.2978 12.9423 7.1215 0.0000 0.0000 7.4853 16.4969 13.1320 -3.6565 0.0000 -0.0000
 6.7825 -11.5258 13.8405 108.0857 -3.9394 4.0110 0.2052 2.7021 -0.7390 1.8724 0.5743 -0.1704 -3.1069 -0.9831 -1.9810 -1.2795 -0.9574 1.2096 -26.5387 15.0403 4.8664 -4.4094 -3.1646 1.4561 6.6939 32.5662 -15.4532 8.7918 -44.3660 20.4473 -0.0001 0.0001 126.9819 76.3094 71.7031 -53.8523 0.0000 0.0000 0.0000 -0.0000 0.0000 0.0000 8.9254 -6.5273 14.8672 -0.3574 23.9502 -27.2655 -0.0001 -0.0001 -116.9456 101.8309 -79.7772 82.5844 0.0000 -0.0000 0.0000 0.0000 -0.0000 0.0000 -2.2632 9.8342 -14.2666 14.7618 0.0000 0.0000 4.0615 -10.7932 -13.0814 -1.8266 0.0000 -0.0000 2.2730 -8.2659 12.9473 7.1750 0.0000 0.0000 7.4447 16.5051 13.2264 -3.5605 0.0000 -0.0000
 6.7834 -11.5175 13.7298 108.0607 -3.9515 3.9820 0.1653 2.6905 -0.7328 1.8514 0.5777 -0.1637 -3.1077 -0.9852 -1.9606 -1.2603 -0.9858 1.2299 -26.5539 15.1816 4.9550 -4.4370 -3.2413 1.3739 6.8292 32.6384 -15.7455 9.1957 -44.4622 20.5734 -0.0001 0.0001 127.3389 76.3340 71.7070 -53.7092 0.0000 0.0000 0.0000 0.0000 -0.0000 -0.0000 8.9522 -6.4704 15.0543 -0.0861 23.8150 -27.1905 -0.0001 -0.0001 -117.2681 102.8262 -79.7472 83.5058 0.0000 -0.0000 0.0000 -0.0000 0.0000 0.0000 -2.2307 9.8244 -14.1829 14.8535 0.0000 0.0000 4.0390 -10.7266 -13.1488 -1.8272 0.0000 -0.0000 2.3696 -8.2412 12.9540 7.2349 0.0000 0.0000 7.4140 16.5416 13.3069 -3.4440 0.0000 -0.0000
 6.7857 -11.5098 13.6283 108.0271 -3.9703 3.9598 0.1373 2.6833 -0.7290 1.8184 0.5851 -0.1601 -3.1002 -0.9941 -1.9296 -1.2458 -1.0097 1.2482 -26.5579 15.3082 5.0329 -4.4578 -3.3105 1.2822 6.9622 32.7180 -16.0214 9.5830 -44.5432 20.7045 -0.0001 0.0001 127.6484 76.4067 71.7204 -53.6388 -0.0000 -0.0000 -0.0000 -0.0000 -0.0000 -0.0000 8.9715 -6.4226 15.2129 0.1850 23.6690 -27.1409 -0.0001 -0.0001 -117.5410 103.8015 -79.7211 84.4212 -0.0000 0.0000 -0.0000 0.0000 0.0000 -0.0000 -2.1961 9.8250 -14.1022 14.9449 0.0000 0.0000 4.0217 -10.6630 -13.2033 -1.8356 0.0000 -0.0000 2.4609 -8.2091 12.9472 7.2874 0.0000 0.0000 7.3952 16.6063 13.3880 -3.3173 0.0000 -0.0000
 6.7890 -11.5027 13.5360 107.9829 -3.9941 3.9389 0.1112 2.6799 -0.7196 1.7970 0.5914 -0.1564 -3.1016 -1.0009 -1.8940 -1.2315 -1.0315 1.2651 -26.5537 15.4180 5.0928 -4.4664 -3.3703 1.1890 7.0890 32.7991 -16.2833 9.9539 -44.6065 20.8445 -0.0001 0.0001 127.9084 76.4941 71.7428 -53.6066 -0.0000 -0.0000 -0.0000 -0.0000 -0.0000 0.0000 8.9850 -6.3868 15.3436 0.4535 23.5156 -27.1183 -0.0001 -0.0001 -117.7644 104.7498 -79.7041 85.3231 0.0000 0.0000 0.0000 0.0000 -0.0000 0.0000 -2.1568 9.8320 -14.0195 15.0311 0.0000 0.0000 4.0101 -10.6060 -13.2467 -1.8542 0.0000 -0.0000 2.5531 -8.1725 12.9426 7.3267 0.0000 0.0000 7.3912 16.6925 13.4627 -3.2012 0.0000 -0.0000
 6.7927 -11.4962 13.4537 107.9396 -4.0203 3.9289 0.0865 2.6844 -0.7165 1.7627 0.5976 -0.1508 -3.0942 -1.0120 -1.8612 -1.2209 -1.0496 1.2794 -26.5426 15.5065 5.1396 -4.4602 -3.4204 1.0982 7.1908 32.8798 -16.5078 10.3125 -44.6527 20.9886 -0.0001 0.0001 128.1177 76.5963 71.7725 -53.6089 0.0000 -0.0000 0.0000 0.0000 -0.0000 -0.0000 8.9935 -6.3570 15.4553 0.7141 23.3497 -27.1238 -0.0001 -0.0001 -117.9367 105.6646 -79.6877 86.2066 0.0000 0.0000 -0.0000 -0.0000 0.0000 -0.0000 -2.1236 9.8425 -13.9424 15.1104 0.0000 0.0000 4.0039 -10.5579 -13.2832 -1.8810 0.0000 -0.0000 2.6263 -8.1358 12.9381 7.3614 0.0000 0.0000 7.4001 16.7881 13.5271 -3.1070 0.0000 -0.0000
